<svg xmlns="http://www.w3.org/2000/svg" xmlns:xlink="http://www.w3.org/1999/xlink" version="1.1" x="0px" y="0px" viewBox="0 0 100 100" enable-background="new 0 0 100 100" xml:space="preserve"><path d="M55.2,30.6c0.7,0,1.2-0.5,1.2-1.2c0-0.7-0.6-1.3-1.2-1.3h-9.8c-0.7,0-1.2,0.6-1.2,1.3c0,0.7,0.6,1.2,1.2,1.2H55.2z   M50.3,67.5c-1.4,0-2.5,1.1-2.5,2.5c0,1.4,1.1,2.5,2.5,2.5c1.4,0,2.5-1.1,2.5-2.5C52.8,68.6,51.7,67.5,50.3,67.5L50.3,67.5z M50,5  C25.1,5,5,25.1,5,50c0,24.8,20.1,45,45,45s45-20.2,45-45C95,25.1,74.9,5,50,5L50,5z M66,70.8c0,3.4-2.8,6.1-6.1,6.1H40.2  c-3.4,0-6.1-2.8-6.1-6.1V29.1c0-3.4,2.7-6.1,6.1-6.1h19.6c3.4,0,6.1,2.8,6.1,6.1V70.8z M39.3,33.2c-0.7,0-1.3,0.6-1.3,1.3V64  c0,0.7,0.6,1.3,1.3,1.3h22.1c0.7,0,1.3-0.6,1.3-1.3V34.5c0-0.7-0.6-1.3-1.3-1.3H39.3z"></path></svg>